<mxfile host="app.diagrams.net" modified="2023-01-09T13:52:42.921Z" agent="5.0 (Windows NT 10.0; Win64; x64) AppleWebKit/537.36 (KHTML, like Gecko) Chrome/108.0.0.0 Safari/537.36 Edg/108.0.1462.76" version="20.7.4" etag="_Voi8O4PDOefAeNIhYD8" type="github">
  <diagram id="GScHBUMfDwEprSYAEqxs" name="第 1 页">
    <mxGraphModel dx="622" dy="652" grid="1" gridSize="10" guides="1" tooltips="1" connect="1" arrows="1" fold="1" page="1" pageScale="1" pageWidth="827" pageHeight="1169" math="0" shadow="0">
      <root>
        <mxCell id="0" />
        <mxCell id="1" parent="0" />
        <mxCell id="ywaZrz0CZjfvaGSN4ZCI-19" style="edgeStyle=orthogonalEdgeStyle;rounded=0;orthogonalLoop=1;jettySize=auto;html=1;exitX=0.5;exitY=1;exitDx=0;exitDy=0;entryX=0.5;entryY=0;entryDx=0;entryDy=0;" edge="1" parent="1" source="ywaZrz0CZjfvaGSN4ZCI-17" target="ywaZrz0CZjfvaGSN4ZCI-18">
          <mxGeometry relative="1" as="geometry" />
        </mxCell>
        <mxCell id="ywaZrz0CZjfvaGSN4ZCI-17" value="Client" style="rounded=0;whiteSpace=wrap;html=1;" vertex="1" parent="1">
          <mxGeometry x="294" y="180" width="120" height="60" as="geometry" />
        </mxCell>
        <mxCell id="ywaZrz0CZjfvaGSN4ZCI-48" style="rounded=0;orthogonalLoop=1;jettySize=auto;html=1;exitX=0.5;exitY=1;exitDx=0;exitDy=0;entryX=0.5;entryY=0;entryDx=0;entryDy=0;endArrow=classic;endFill=1;" edge="1" parent="1" source="ywaZrz0CZjfvaGSN4ZCI-18" target="ywaZrz0CZjfvaGSN4ZCI-41">
          <mxGeometry relative="1" as="geometry" />
        </mxCell>
        <mxCell id="ywaZrz0CZjfvaGSN4ZCI-49" style="rounded=0;orthogonalLoop=1;jettySize=auto;html=1;exitX=0.5;exitY=1;exitDx=0;exitDy=0;entryX=0.5;entryY=0;entryDx=0;entryDy=0;endArrow=classic;endFill=1;" edge="1" parent="1" source="ywaZrz0CZjfvaGSN4ZCI-18" target="ywaZrz0CZjfvaGSN4ZCI-43">
          <mxGeometry relative="1" as="geometry" />
        </mxCell>
        <mxCell id="ywaZrz0CZjfvaGSN4ZCI-18" value="VIP" style="rounded=0;whiteSpace=wrap;html=1;" vertex="1" parent="1">
          <mxGeometry x="294" y="310" width="120" height="60" as="geometry" />
        </mxCell>
        <mxCell id="ywaZrz0CZjfvaGSN4ZCI-33" value="" style="rounded=0;whiteSpace=wrap;html=1;" vertex="1" parent="1">
          <mxGeometry x="174" y="450" width="120" height="60" as="geometry" />
        </mxCell>
        <mxCell id="ywaZrz0CZjfvaGSN4ZCI-34" value="" style="rounded=0;whiteSpace=wrap;html=1;" vertex="1" parent="1">
          <mxGeometry x="414" y="450" width="120" height="60" as="geometry" />
        </mxCell>
        <mxCell id="ywaZrz0CZjfvaGSN4ZCI-37" style="edgeStyle=orthogonalEdgeStyle;rounded=0;orthogonalLoop=1;jettySize=auto;html=1;exitX=0;exitY=0.5;exitDx=0;exitDy=0;entryX=1;entryY=0.5;entryDx=0;entryDy=0;endArrow=none;endFill=0;" edge="1" parent="1" source="ywaZrz0CZjfvaGSN4ZCI-34" target="ywaZrz0CZjfvaGSN4ZCI-34">
          <mxGeometry relative="1" as="geometry">
            <Array as="points">
              <mxPoint x="480" y="480" />
              <mxPoint x="480" y="480" />
            </Array>
          </mxGeometry>
        </mxCell>
        <mxCell id="ywaZrz0CZjfvaGSN4ZCI-40" style="edgeStyle=orthogonalEdgeStyle;rounded=0;orthogonalLoop=1;jettySize=auto;html=1;exitX=0;exitY=0.5;exitDx=0;exitDy=0;entryX=1;entryY=0.5;entryDx=0;entryDy=0;endArrow=none;endFill=0;" edge="1" parent="1" source="ywaZrz0CZjfvaGSN4ZCI-33" target="ywaZrz0CZjfvaGSN4ZCI-33">
          <mxGeometry relative="1" as="geometry">
            <Array as="points">
              <mxPoint x="234" y="480" />
              <mxPoint x="234" y="480" />
            </Array>
          </mxGeometry>
        </mxCell>
        <mxCell id="ywaZrz0CZjfvaGSN4ZCI-41" value="Nginx（主）" style="text;html=1;strokeColor=none;fillColor=none;align=center;verticalAlign=middle;whiteSpace=wrap;rounded=0;" vertex="1" parent="1">
          <mxGeometry x="204" y="450" width="60" height="30" as="geometry" />
        </mxCell>
        <mxCell id="ywaZrz0CZjfvaGSN4ZCI-50" style="edgeStyle=none;rounded=0;orthogonalLoop=1;jettySize=auto;html=1;exitX=0.5;exitY=1;exitDx=0;exitDy=0;entryX=0.5;entryY=0;entryDx=0;entryDy=0;endArrow=classic;endFill=1;" edge="1" parent="1" source="ywaZrz0CZjfvaGSN4ZCI-42" target="ywaZrz0CZjfvaGSN4ZCI-45">
          <mxGeometry relative="1" as="geometry" />
        </mxCell>
        <mxCell id="ywaZrz0CZjfvaGSN4ZCI-51" style="edgeStyle=none;rounded=0;orthogonalLoop=1;jettySize=auto;html=1;exitX=0.5;exitY=1;exitDx=0;exitDy=0;entryX=0.5;entryY=0;entryDx=0;entryDy=0;endArrow=classic;endFill=1;" edge="1" parent="1" source="ywaZrz0CZjfvaGSN4ZCI-42" target="ywaZrz0CZjfvaGSN4ZCI-46">
          <mxGeometry relative="1" as="geometry" />
        </mxCell>
        <mxCell id="ywaZrz0CZjfvaGSN4ZCI-52" style="edgeStyle=none;rounded=0;orthogonalLoop=1;jettySize=auto;html=1;exitX=0.5;exitY=1;exitDx=0;exitDy=0;entryX=0.5;entryY=0;entryDx=0;entryDy=0;endArrow=classic;endFill=1;" edge="1" parent="1" source="ywaZrz0CZjfvaGSN4ZCI-42" target="ywaZrz0CZjfvaGSN4ZCI-47">
          <mxGeometry relative="1" as="geometry" />
        </mxCell>
        <mxCell id="ywaZrz0CZjfvaGSN4ZCI-42" value="Keepalive" style="text;html=1;strokeColor=none;fillColor=none;align=center;verticalAlign=middle;whiteSpace=wrap;rounded=0;" vertex="1" parent="1">
          <mxGeometry x="204" y="480" width="60" height="30" as="geometry" />
        </mxCell>
        <mxCell id="ywaZrz0CZjfvaGSN4ZCI-43" value="Nginx（备）" style="text;html=1;strokeColor=none;fillColor=none;align=center;verticalAlign=middle;whiteSpace=wrap;rounded=0;" vertex="1" parent="1">
          <mxGeometry x="450" y="450" width="60" height="30" as="geometry" />
        </mxCell>
        <mxCell id="ywaZrz0CZjfvaGSN4ZCI-53" style="edgeStyle=none;rounded=0;orthogonalLoop=1;jettySize=auto;html=1;exitX=0.5;exitY=1;exitDx=0;exitDy=0;endArrow=classic;endFill=1;" edge="1" parent="1" source="ywaZrz0CZjfvaGSN4ZCI-44">
          <mxGeometry relative="1" as="geometry">
            <mxPoint x="510" y="610" as="targetPoint" />
          </mxGeometry>
        </mxCell>
        <mxCell id="ywaZrz0CZjfvaGSN4ZCI-54" style="edgeStyle=none;rounded=0;orthogonalLoop=1;jettySize=auto;html=1;exitX=0.5;exitY=1;exitDx=0;exitDy=0;entryX=0.5;entryY=0;entryDx=0;entryDy=0;endArrow=classic;endFill=1;" edge="1" parent="1" source="ywaZrz0CZjfvaGSN4ZCI-44" target="ywaZrz0CZjfvaGSN4ZCI-46">
          <mxGeometry relative="1" as="geometry" />
        </mxCell>
        <mxCell id="ywaZrz0CZjfvaGSN4ZCI-55" style="edgeStyle=none;rounded=0;orthogonalLoop=1;jettySize=auto;html=1;exitX=0.5;exitY=1;exitDx=0;exitDy=0;entryX=0.5;entryY=0;entryDx=0;entryDy=0;endArrow=classic;endFill=1;" edge="1" parent="1" source="ywaZrz0CZjfvaGSN4ZCI-44" target="ywaZrz0CZjfvaGSN4ZCI-45">
          <mxGeometry relative="1" as="geometry" />
        </mxCell>
        <mxCell id="ywaZrz0CZjfvaGSN4ZCI-44" value="Keepalive" style="text;html=1;strokeColor=none;fillColor=none;align=center;verticalAlign=middle;whiteSpace=wrap;rounded=0;" vertex="1" parent="1">
          <mxGeometry x="450" y="480" width="60" height="30" as="geometry" />
        </mxCell>
        <mxCell id="ywaZrz0CZjfvaGSN4ZCI-45" value="server" style="rounded=0;whiteSpace=wrap;html=1;" vertex="1" parent="1">
          <mxGeometry x="140" y="610" width="120" height="60" as="geometry" />
        </mxCell>
        <mxCell id="ywaZrz0CZjfvaGSN4ZCI-46" value="server" style="rounded=0;whiteSpace=wrap;html=1;" vertex="1" parent="1">
          <mxGeometry x="294" y="610" width="120" height="60" as="geometry" />
        </mxCell>
        <mxCell id="ywaZrz0CZjfvaGSN4ZCI-47" value="&#xa;&lt;span style=&quot;color: rgb(0, 0, 0); font-family: Helvetica; font-size: 12px; font-style: normal; font-variant-ligatures: normal; font-variant-caps: normal; font-weight: 400; letter-spacing: normal; orphans: 2; text-align: center; text-indent: 0px; text-transform: none; widows: 2; word-spacing: 0px; -webkit-text-stroke-width: 0px; background-color: rgb(251, 251, 251); text-decoration-thickness: initial; text-decoration-style: initial; text-decoration-color: initial; float: none; display: inline !important;&quot;&gt;server&lt;/span&gt;&#xa;&#xa;" style="rounded=0;whiteSpace=wrap;html=1;" vertex="1" parent="1">
          <mxGeometry x="450" y="610" width="120" height="60" as="geometry" />
        </mxCell>
      </root>
    </mxGraphModel>
  </diagram>
</mxfile>
